<svg width="32" height="32" viewBox="0 0 48 48" fill="none" xmlns="http://www.w3.org/2000/svg">
  <!-- Background gradient -->
  <defs>
    <linearGradient id="bgGradient" x1="0%" y1="0%" x2="100%" y2="100%">
      <stop offset="0%" style="stop-color:#5c7cfa;stop-opacity:1" />
      <stop offset="100%" style="stop-color:#4c6ef5;stop-opacity:1" />
    </linearGradient>
  </defs>
  
  <!-- Background -->
  <rect width="48" height="48" rx="8" fill="url(#bgGradient)"/>
  
  <!-- Book background -->
  <path
    d="M10 8C10 6.89543 10.8954 6 12 6H36C37.1046 6 38 6.89543 38 8V40C38 41.1046 37.1046 42 36 42H12C10.8954 42 10 41.1046 10 40V8Z"
    fill="white"
    opacity="0.2"
  />
  <path
    d="M14 10H34V38H14V10Z"
    fill="white"
    opacity="0.1"
  />
  
  <!-- AI Neural Network Nodes -->
  <circle cx="24" cy="14" r="2.5" fill="white" />
  <circle cx="18" cy="24" r="2" fill="white" />
  <circle cx="30" cy="24" r="2" fill="white" />
  <circle cx="24" cy="34" r="2.5" fill="white" />
  
  <!-- Connection lines -->
  <path
    d="M24 16.5 L18 22 M24 16.5 L30 22 M18 26 L24 31.5 M30 26 L24 31.5"
    stroke="white"
    stroke-width="1.5"
    stroke-linecap="round"
    opacity="0.5"
  />
  
  <!-- Book outline -->
  <rect
    x="10"
    y="6"
    width="28"
    height="36"
    rx="2"
    stroke="white"
    stroke-width="2"
    fill="none"
  />
  
  <!-- Book spine lines -->
  <line x1="14" y1="10" x2="14" y2="38" stroke="white" stroke-width="1.5" opacity="0.3" />
  <line x1="34" y1="10" x2="34" y2="38" stroke="white" stroke-width="1.5" opacity="0.3" />
</svg>

